<?xml version="1.0" encoding="utf-8"?>
<!-- Generator: Adobe Illustrator 25.4.3, SVG Export Plug-In . SVG Version: 6.00 Build 0)  -->
<svg version="1.1" id="Layer_1" xmlns="http://www.w3.org/2000/svg" xmlns:xlink="http://www.w3.org/1999/xlink" x="0px" y="0px"
	 viewBox="0 0 700 700" style="enable-background:new 0 0 700 700;" xml:space="preserve">
<g>
	<path d="M182,522.9c-33.9,0-61.6-27.7-61.6-61.6V259.7c0-33.9,27.7-61.6,61.6-61.6h59.7l19.6-48.8l0,0c1.6-4.3,5.7-7.1,10.3-7.2
		h156.8h0c4.6,0.1,8.7,2.9,10.3,7.2l19.6,48.8H518c33.9,0,61.6,27.7,61.6,61.6v201.6c0,33.9-27.7,61.6-61.6,61.6L182,522.9
		L182,522.9z M182,500.5h336c21.9,0,39.2-17.3,39.2-39.2V259.7c0-21.9-17.3-39.2-39.2-39.2h-67.2v0c-4.5,0-8.6-2.8-10.3-7l-19.6-49
		H279.1l-19.6,49c-1.7,4.2-5.8,7-10.3,7H182c-21.9,0-39.2,17.3-39.2,39.2v201.6C142.8,483.2,160.1,500.5,182,500.5L182,500.5z
		 M350,466.9c-58.6,0-106.4-47.8-106.4-106.4c0-58.6,47.8-106.4,106.4-106.4c58.6,0,106.4,47.8,106.4,106.4S408.6,466.9,350,466.9z
		 M350,444.5c46.5,0,84-37.5,84-84s-37.5-84-84-84s-84,37.5-84,84S303.5,444.5,350,444.5z"/>
</g>
</svg>
