<?xml version="1.0" encoding="utf-8"?>
<!-- Generator: Adobe Illustrator 25.4.3, SVG Export Plug-In . SVG Version: 6.00 Build 0)  -->
<svg version="1.1" id="Layer_1" xmlns="http://www.w3.org/2000/svg" xmlns:xlink="http://www.w3.org/1999/xlink" x="0px" y="0px"
	 viewBox="0 0 700 700" style="enable-background:new 0 0 700 700;" xml:space="preserve">
<g>
	<path d="M187.6,567.8c-8.6,0-16.7-3.3-22.7-9.4c-6-6-9.4-14.3-9.4-22.7V180.8c0-8.5,3.4-16.8,9.4-22.7c6.1-6.1,14.2-9.4,22.7-9.4
		h186c8.6,0,16.7,3.3,22.7,9.4c6,6,9.4,14.3,9.4,22.7v87.1l96.1,32.9h0.1l0.6,0.2c1.5,0.6,2.8,1.5,3.7,2.8c0.2,0.3,0.5,0.7,0.7,1
		c0.6,1,1,2.1,1.1,3.3c0.1,0.3,0.2,0.7,0.2,1.1c0,0.2,0,0.4-0.1,0.6v116.7c0,0.9-0.1,1.8-0.4,2.7v0.1l-0.3,0.7
		c-0.4,0.9-0.9,1.6-1.6,2.3c-0.1,0.1-0.2,0.3-0.4,0.4l-0.1,0.1c-0.5,0.5-1.1,0.9-1.7,1.2c-0.2,0.2-0.5,0.3-0.7,0.4
		c-0.1,0.1-0.2,0.1-0.3,0.2l-0.2,0.1L405.8,468v67.7c0,8.6-3.3,16.7-9.4,22.7c-6.1,6.1-14.2,9.4-22.7,9.4H187.6z M187.6,166.3
		c-3.8,0-7.6,1.5-10.3,4.2c-2.7,2.7-4.2,6.4-4.2,10.3v354.9c0,3.8,1.5,7.6,4.2,10.3c2.7,2.7,6.4,4.2,10.3,4.2h186
		c3.9,0,7.5-1.5,10.3-4.2c2.7-2.7,4.2-6.4,4.2-10.3v-3h0V180.8c0-3.8-1.5-7.6-4.2-10.3c-2.7-2.7-6.4-4.2-10.3-4.2h-54.3
		c-1.5,4.7-5.9,7.9-11,8h-55.4c-5.1,0-9.5-3.3-11-8H187.6z M405.8,449.3l84.8-29.1v-98.5l-84.8,29V449.3z M405.8,332.1l66.4-22.7
		l-66.4-22.8V332.1z M271.7,542.5c-4.9,0-8.8-4-8.8-8.8c0-4.9,4-8.8,8.8-8.8h18c4.9,0,8.8,4,8.8,8.8c0,4.9-4,8.8-8.8,8.8H271.7z
		 M518.4,528.4c-2.9,0-5.6-1.4-7.2-3.7l-19-26.9c-1.4-1.9-2-4.3-1.7-6.6c0.4-2.3,1.7-4.5,3.6-5.9c1.5-1.1,3.3-1.6,5.1-1.6
		c0.5,0,1.1,0.1,1.6,0.2c2.3,0.4,4.4,1.8,5.7,3.8l19,26.9c1.3,1.9,1.9,4.3,1.5,6.6c-0.4,2.3-1.7,4.4-3.6,5.7
		C522,527.8,520.3,528.4,518.4,528.4L518.4,528.4z M373.6,462.5c-1,0-1.9-0.2-2.9-0.5l-79.4-27.2l-0.3-0.2c-0.6-0.3-1.1-0.6-1.6-0.9
		l-0.1,0c-0.2-0.1-0.5-0.3-0.8-0.6l-0.1-0.1l-0.2-0.2c-0.4-0.5-0.8-1-1.1-1.5c-0.2-0.3-0.4-0.5-0.5-0.8l-0.1-0.2l-0.1-0.2
		c-0.2-0.5-0.4-1.1-0.5-1.6c-0.1-0.5-0.2-0.9-0.2-1.4c0-0.2,0-0.4,0-0.6V309.3c0-1.8,0.6-3.4,1.5-4.8l0.2-0.3l0.5,0.2l-0.4-0.3
		c1-1.4,2.4-2.4,4-3l79.2-27.1c0.9-0.3,1.9-0.5,2.8-0.5c3.8,0,7.1,2.4,8.4,6c1.6,4.6-0.9,9.6-5.4,11.2l0,0l-54.7,18.7l56.7,19.4v0.3
		c2.9,1.9,4.4,5.3,3.8,8.8c-0.7,4.3-4.4,7.4-8.7,7.4c-1,0-2-0.2-2.9-0.5l-67.4-23.1l0,98.6l69.2,23.7v0l4,1.4
		c4.1,1.4,6.6,5.5,5.8,9.8C381.6,459.3,378,462.5,373.6,462.5z M551.1,376.8c-4.9,0-8.8-4-8.8-8.8c0-4.9,4-8.8,8.8-8.8h25.8
		c4.9,0,8.8,4,8.8,8.8c0,4.9-4,8.8-8.8,8.8l0,0H551.1z M499.3,252.3c-1.8,0-3.6-0.6-5.1-1.6c-2-1.4-3.3-3.5-3.6-5.9
		c-0.3-2.4,0.3-4.8,1.7-6.7l18.9-26.8c1.3-2,3.4-3.4,5.7-3.9c0.6-0.1,1.1-0.2,1.7-0.2c1.8,0,3.6,0.6,5.1,1.6c2,1.4,3.3,3.5,3.6,5.9
		c0.3,2.4-0.3,4.8-1.7,6.7l-18.9,26.8c-1.3,2-3.4,3.4-5.7,3.9C500.4,252.3,499.9,252.3,499.3,252.3z"/>
</g>
</svg>
