<?xml version="1.0" encoding="utf-8"?>
<!-- Generator: Adobe Illustrator 25.4.3, SVG Export Plug-In . SVG Version: 6.00 Build 0)  -->
<svg version="1.1" id="Layer_1" xmlns="http://www.w3.org/2000/svg" xmlns:xlink="http://www.w3.org/1999/xlink" x="0px" y="0px"
	 viewBox="0 0 700 700" style="enable-background:new 0 0 700 700;" xml:space="preserve">
<g>
	<path d="M196,449.5c0-4.6-3.8-8.4-8.4-8.4h-46.7c-4.6,0-8.4,3.8-8.4,8.4s3.8,8.4,8.4,8.4h46.7C192.2,457.9,196,454.2,196,449.5z"/>
	<path d="M223.6,499.7l-36,17.1c-4.2,2-6,7-4,11.2c1.4,3,4.5,4.8,7.6,4.8c1.2,0,2.4-0.3,3.6-0.8l36-17.1c4.2-2,6-7,4-11.2
		C232.8,499.5,227.8,497.7,223.6,499.7L223.6,499.7z"/>
	<path d="M512.4,516.8l-36-17.1c-4.2-2-9.2-0.2-11.2,4c-2,4.2-0.2,9.2,4,11.2l36,17.1c1.2,0.6,2.4,0.8,3.6,0.8
		c3.1,0,6.2-1.8,7.6-4.8C518.3,523.8,516.6,518.8,512.4,516.8L512.4,516.8z"/>
	<path d="M350,534c-4.6,0-8.4,3.8-8.4,8.4v36.1c0,4.6,3.8,8.4,8.4,8.4s8.4-3.8,8.4-8.4v-36.1C358.4,537.7,354.6,534,350,534z"/>
	<path d="M559.1,441.1h-46.7c-4.6,0-8.4,3.8-8.4,8.4s3.8,8.4,8.4,8.4h46.7c4.6,0,8.4-3.8,8.4-8.4
		C567.5,444.9,563.7,441.1,559.1,441.1L559.1,441.1z"/>
	<path d="M472.8,400.2c1.2,0,2.4-0.3,3.6-0.8l29-13.7c4.2-2,6-7,4-11.2c-2-4.2-7-6-11.2-4l-29,13.7c-4.2,2-6,7-4,11.2
		C466.6,398.4,469.6,400.2,472.8,400.2L472.8,400.2z"/>
	<path d="M194.6,385.7l29,13.7c1.2,0.5,2.4,0.8,3.6,0.8c3.2,0,6.2-1.8,7.6-4.8c2-4.2,0.2-9.2-4-11.2l-29-13.7c-4.2-2-9.2-0.2-11.2,4
		C188.6,378.7,190.4,383.7,194.6,385.7L194.6,385.7z"/>
	<path d="M350,229.2c23.5,0,42.6-19.1,42.6-42.6S373.5,144,350,144s-42.6,19.1-42.6,42.6S326.5,229.2,350,229.2z M350,160.9
		c14.2,0,25.8,11.6,25.8,25.8c0,14.2-11.6,25.8-25.8,25.8s-25.8-11.6-25.8-25.8C324.2,172.4,335.8,160.9,350,160.9z"/>
	<path d="M394.1,391.1l10.4-60.9c2.3-19.7,3.8-42.4-7.6-62c-9.3-15.9-26.4-25-46.9-25c-20.8,0-38.1,9.4-47.3,25.7
		c-12.1,21.5-8.9,45.5-6.1,66.7l0.5,3.8c1.2,9.3,3.8,22.5,6.3,35.3c1.1,5.5,2.1,11,3.1,16.3c-47,8.7-79.8,31.3-79.8,58.5
		c0,35,54.2,62.5,123.3,62.5c69.1,0,123.3-27.4,123.3-62.5C473.3,422.4,440.8,399.9,394.1,391.1L394.1,391.1z M319.8,371.5
		c-2.4-12.6-5-25.5-6.1-34.3l-0.5-3.8c-2.6-19.5-5.3-39.7,4-56.2c8.4-14.9,24.1-17.2,32.7-17.2c8.5,0,23.9,2.2,32.4,16.7
		c8.8,15.1,7.5,33.7,5.5,51.1l-10.3,60.8l-2.8,16.6l-6.1,35.9c-1.8,2.2-9.2,6.9-18.7,6.9c-9.5,0-16.8-4.7-18.7-6.9
		c-0.9-6.4-1.7-11.5-2.5-16.7c-0.9-5.4-1.8-10.9-2.7-17.6c-0.1-0.5-0.2-1.1-0.2-1.6c-0.7-4.8-1.7-10.5-2.8-16.6
		C322,383,320.9,377.2,319.8,371.5L319.8,371.5z M350,495.2c-62.8,0-106.5-24.1-106.5-45.7c0-16.5,25.6-34.4,65.7-42
		c0.1,0.5,0.1,1,0.2,1.4c0.9,7,1.8,12.5,2.7,18.1c0.8,5,1.6,10.1,2.5,16.3c0.8,10.9,17.9,21.4,35.3,21.4c17.3,0,34.3-10.4,35.3-21.2
		l6.1-36c39.8,7.6,65.2,25.4,65.2,41.9C456.5,471.1,412.8,495.2,350,495.2L350,495.2z"/>
</g>
</svg>
