<?xml version="1.0" encoding="utf-8"?>
<!-- Generator: Adobe Illustrator 25.4.3, SVG Export Plug-In . SVG Version: 6.00 Build 0)  -->
<svg version="1.1" id="Layer_1" xmlns="http://www.w3.org/2000/svg" xmlns:xlink="http://www.w3.org/1999/xlink" x="0px" y="0px"
	 viewBox="0 0 700 700" style="enable-background:new 0 0 700 700;" xml:space="preserve">
<path d="M548,161.3c-52.9-52.9-123.2-82-198-82s-145.1,29.1-198,82s-82,123.2-82,198s29.1,145.1,82,198s123.2,82,198,82
	s145.1-29.1,198-82s82-123.2,82-198S600.9,214.1,548,161.3L548,161.3z M605.9,359.3c0,40.9-9.6,79.6-26.8,113.9l-108.9-59v-116v-0.2
	c0-0.3,0-0.8-0.1-1.1v-0.3c-0.1-0.4-0.1-0.9-0.2-1.3v-0.2c-0.1-0.4-0.2-0.8-0.4-1.1c0-0.1-0.1-0.2-0.1-0.3c-0.1-0.3-0.3-0.7-0.4-1
	c0-0.1-0.1-0.2-0.1-0.3c-0.2-0.4-0.6-0.8-0.8-1.2l-0.1-0.1c-0.2-0.3-0.6-0.7-0.9-1c-0.1-0.1-0.2-0.2-0.2-0.2
	c-0.2-0.2-0.6-0.4-0.8-0.8c-0.1-0.1-0.2-0.1-0.3-0.2c-0.3-0.3-0.8-0.6-1.2-0.8L364,229.1l-0.2-125.6
	C498.5,110.8,605.9,222.8,605.9,359.3L605.9,359.3z M256.9,413.6v-95.4l82.7,48.2v95.4L256.9,413.6z M351.8,250l82.4,48l-82.9,47.4
	l-82.4-48L351.8,250z M363.6,366.1l82.7-47.3v95.5l-82.7,47.3V366.1z M339.6,103.6l0.2,125.6l-100.9,57.7c-0.4,0.2-0.8,0.4-1.1,0.8
	c-0.1,0.1-0.2,0.1-0.3,0.2c-0.3,0.2-0.6,0.4-0.9,0.8l-0.2,0.2c-0.7,0.7-1.2,1.5-1.8,2.2c-0.1,0.1-0.1,0.2-0.1,0.3
	c-0.2,0.3-0.3,0.7-0.4,1c0,0.1-0.1,0.2-0.1,0.3c-0.2,0.4-0.3,0.9-0.4,1.3v0.1c-0.1,0.4-0.2,0.9-0.2,1.3v0.3c0,0.3-0.1,0.8-0.1,1.1
	v0.2v116.1L122,475.1c-17.9-34.8-27.9-74.1-27.9-115.8C94.1,221.6,203.3,109.1,339.6,103.6L339.6,103.6z M350,615.2
	c-90.9,0-170.9-47.6-216.4-119.3l111.1-61.6l100.6,58.6c3.7,1.9,7.3,2.5,13.6-0.9l99.6-57l109,59.1
	C522.3,566.8,441.6,615.2,350,615.2L350,615.2z"/>
</svg>
